<?xml version="1.0" encoding="utf-8"?>
<!-- Generator: Adobe Illustrator 27.8.1, SVG Export Plug-In . SVG Version: 6.00 Build 0)  -->
<svg version="1.1" id="Lager_1" xmlns="http://www.w3.org/2000/svg" xmlns:xlink="http://www.w3.org/1999/xlink" x="0px" y="0px"
	 viewBox="0 0 171.6 136.2" style="enable-background:new 0 0 171.6 136.2;" xml:space="preserve">
<g>
	<path d="M39.1,3.5l-5.5,41.9H17L10.7,3.5h11.5C23.5,15,24.5,24.8,25,32.8c0.6-8.1,1.2-15.2,1.8-21.5l0.8-7.8
		C27.6,3.5,39.1,3.5,39.1,3.5z"/>
	<path d="M51.8,3.5v41.9H40.9V3.5H51.8z"/>
	<path d="M79.3,16.2H69.1V13c0-1.4-0.1-2.4-0.4-2.8s-0.7-0.6-1.3-0.6c-0.7,0-1.2,0.3-1.5,0.8c-0.3,0.5-0.5,1.4-0.5,2.4
		c0,1.4,0.2,2.4,0.6,3.2c0.4,0.7,1.4,1.6,3.1,2.6c4.8,2.9,7.9,5.2,9.2,7.1c1.3,1.9,1.9,4.8,1.9,8.9c0,3-0.3,5.2-1.1,6.6
		c-0.7,1.4-2.1,2.6-4.1,3.6c-2,1-4.3,1.4-7,1.4c-2.9,0-5.4-0.5-7.5-1.7c-2.1-1.1-3.4-2.5-4.1-4.2c-0.6-1.7-1-4.1-1-7.3v-2.7h10.1
		v5.1c0,1.6,0.1,2.6,0.4,3c0.3,0.5,0.8,0.7,1.5,0.7s1.3-0.3,1.6-0.8s0.5-1.4,0.5-2.5c0-2.5-0.3-4.1-1-4.8c-0.7-0.8-2.4-2-5.1-3.8
		c-2.7-1.8-4.5-3.1-5.4-3.9s-1.6-1.9-2.2-3.4s-0.9-3.3-0.9-5.5c0-3.2,0.4-5.6,1.2-7s2.1-2.6,4-3.5s4-1.3,6.6-1.3
		c2.8,0,5.2,0.5,7.2,1.4c2,0.9,3.3,2.1,4,3.5s1,3.8,1,7.1L79.3,16.2L79.3,16.2z"/>
	<path d="M108.4,3.5v28c0,3.2-0.1,5.4-0.3,6.7s-0.8,2.6-1.8,4c-1,1.3-2.4,2.4-4,3.1c-1.7,0.7-3.6,1-5.9,1c-2.5,0-4.7-0.4-6.6-1.2
		s-3.3-1.9-4.3-3.2c-0.9-1.3-1.5-2.7-1.7-4.2c-0.2-1.5-0.3-4.6-0.3-9.3V3.5h10.9v31.4c0,1.8,0.1,3,0.3,3.5c0.2,0.5,0.6,0.8,1.2,0.8
		c0.7,0,1.1-0.3,1.3-0.8s0.3-1.9,0.3-4V3.5H108.4z"/>
	<path d="M131.4,3.5l6.2,41.9h-11.1l-0.6-7.5H122l-0.6,7.5h-11.3l5.6-41.9C115.7,3.5,131.4,3.5,131.4,3.5z M125.6,30.4
		c-0.6-4.8-1.1-10.6-1.7-17.6c-1.1,8-1.8,13.9-2.1,17.6H125.6z"/>
	<path d="M150.4,3.5V37h6.6v8.4h-17.5V3.5H150.4z"/>
</g>
<g>
	<path d="M47.5,60.7H37.4v-3.1c0-1.5-0.1-2.4-0.4-2.8s-0.7-0.6-1.3-0.6c-0.7,0-1.2,0.3-1.5,0.8c-0.3,0.5-0.5,1.3-0.5,2.4
		c0,1.4,0.2,2.5,0.6,3.2c0.4,0.7,1.4,1.6,3.1,2.6c4.8,2.9,7.9,5.2,9.2,7.1c1.3,1.8,1.9,4.8,1.9,8.9c0,3-0.3,5.2-1,6.6s-2,2.6-4,3.6
		s-4.3,1.4-7,1.4c-2.9,0-5.4-0.6-7.5-1.7c-2.1-1.1-3.4-2.5-4.1-4.2c-0.6-1.7-1-4.1-1-7.3v-2.7H34V80c0,1.6,0.1,2.6,0.4,3
		c0.3,0.4,0.8,0.7,1.5,0.7s1.3-0.3,1.6-0.8s0.5-1.4,0.5-2.5c0-2.5-0.3-4.1-1-4.8c-0.7-0.8-2.4-2-5.1-3.8c-2.7-1.8-4.5-3.1-5.4-3.9
		c-0.9-0.8-1.6-1.9-2.2-3.4s-0.9-3.3-0.9-5.5c0-3.2,0.4-5.6,1.2-7s2.1-2.6,4-3.5s4-1.3,6.6-1.3c2.8,0,5.2,0.5,7.2,1.4s3.3,2.1,4,3.5
		c0.7,1.4,1,3.8,1,7.1L47.5,60.7L47.5,60.7z"/>
	<path d="M73.8,48v8.4h-6.5v33.5H56.4V56.4H50V48L73.8,48L73.8,48z"/>
	<path d="M101.2,72.6c0,4.2-0.1,7.2-0.3,8.9c-0.2,1.8-0.8,3.3-1.9,4.8s-2.4,2.6-4.2,3.3c-1.8,0.8-3.8,1.2-6.2,1.2
		c-2.2,0-4.3-0.4-6-1.1c-1.8-0.7-3.2-1.8-4.3-3.3s-1.7-3.1-1.9-4.8S76,76.9,76,72.6v-7.2c0-4.2,0.1-7.2,0.3-8.9
		c0.2-1.8,0.8-3.3,1.9-4.8s2.4-2.6,4.2-3.3c1.8-0.8,3.8-1.2,6.2-1.2c2.2,0,4.3,0.4,6,1.1c1.8,0.7,3.2,1.8,4.3,3.3
		c1.1,1.5,1.7,3.1,1.9,4.8s0.3,4.7,0.3,9.1V72.6z M90.3,58.8c0-2-0.1-3.2-0.3-3.7c-0.2-0.5-0.7-0.8-1.3-0.8c-0.6,0-1,0.2-1.3,0.7
		c-0.3,0.4-0.4,1.7-0.4,3.9v19.6c0,2.4,0.1,3.9,0.3,4.5s0.7,0.8,1.4,0.8c0.7,0,1.2-0.3,1.4-1c0.2-0.7,0.3-2.2,0.3-4.7V58.8z"/>
	<path d="M105.2,48h7.7c5.1,0,8.6,0.2,10.4,0.6c1.8,0.4,3.3,1.4,4.4,3c1.2,1.6,1.7,4.2,1.7,7.8c0,3.3-0.4,5.5-1.2,6.6
		s-2.4,1.8-4.8,2c2.2,0.5,3.6,1.2,4.3,2.2c0.7,0.9,1.2,1.7,1.4,2.5c0.2,0.8,0.3,2.8,0.3,6.2v11.1h-10.1V76c0-2.2-0.2-3.6-0.5-4.2
		c-0.3-0.5-1.3-0.8-2.8-0.8v18.9h-10.9L105.2,48L105.2,48z M116.1,55.2v9.3c1.2,0,2.1-0.2,2.6-0.5c0.5-0.3,0.7-1.4,0.7-3.3v-2.3
		c0-1.3-0.2-2.2-0.7-2.6C118.3,55.4,117.4,55.2,116.1,55.2z"/>
	<path d="M157,48l-7.9,26.7v15.2H139V74.8L131.3,48h10c1.6,8.2,2.4,13.7,2.6,16.5c0.6-4.5,1.6-10,3-16.5L157,48L157,48z"/>
</g>
<g>
	<path d="M24.6,92v8.4h-6.5v33.5H7.3v-33.5H0.8V92H24.6z"/>
	<path d="M27.1,92h18.2v8.4H38v7.9h6.8v8H38v9.2h8v8.4H27.1V92z"/>
	<path d="M60,92v33.5h6.6v8.4H49.2V92L60,92L60,92z"/>
	<path d="M80.2,92v33.5h6.6v8.4H69.3V92L80.2,92L80.2,92z"/>
	<path d="M100.4,92v41.9H89.5V92H100.4z"/>
	<path d="M129.1,92v41.9h-9.6l-5.7-19.1v19.1h-9.1V92h9.1l6.1,18.9V92H129.1z"/>
	<path d="M158.4,107.4h-10.9v-3.8c0-2.4-0.1-3.9-0.3-4.5c-0.2-0.6-0.7-0.9-1.5-0.9c-0.7,0-1.1,0.3-1.4,0.8c-0.2,0.5-0.4,1.8-0.4,4
		v20.1c0,1.9,0.1,3.1,0.4,3.7s0.7,0.9,1.4,0.9c0.8,0,1.3-0.3,1.6-1c0.3-0.7,0.4-2,0.4-3.9v-5h-2.2v-6.4h12.8v22.5h-6.9l-1-3
		c-0.7,1.3-1.7,2.3-2.8,2.9c-1.1,0.6-2.5,1-4,1c-1.8,0-3.5-0.4-5.1-1.3s-2.8-2-3.6-3.3s-1.4-2.7-1.6-4.1s-0.3-3.6-0.3-6.5v-12.4
		c0-4,0.2-6.9,0.6-8.7s1.7-3.5,3.7-5c2-1.5,4.7-2.3,7.9-2.3c3.2,0,5.8,0.7,7.9,2s3.5,2.9,4.1,4.7c0.6,1.8,1,4.4,1,7.8V107.4z"/>
</g>
<g>
	<path d="M160.6,130.3c0-2.6,1.7-4.3,4.1-4.3c2.4,0,4.1,1.8,4.1,4.3c0,2.5-1.6,4.3-4.1,4.3C162.3,134.6,160.6,132.8,160.6,130.3z"/>
</g>
</svg>
